<svg width="17" height="18" viewBox="0 0 17 18" fill="none" xmlns="http://www.w3.org/2000/svg">
<circle cx="8.4" cy="9.06667" r="8.4" fill="#C80462" fill-opacity="0.2"/>
<path d="M11.6765 10.4618V11.9775C11.6765 12.182 11.5048 12.3536 11.3003 12.3427C10.2448 12.2806 9.2551 11.9665 8.38953 11.4662C7.39249 10.8891 6.5671 10.0637 5.99006 9.06667C5.48606 8.20111 5.17562 7.21137 5.11353 6.15589C5.10258 5.95137 5.27423 5.77972 5.47875 5.77972H6.9944C7.16971 5.77972 7.31945 5.90389 7.35232 6.07189L7.62258 7.41589C7.64814 7.53641 7.60797 7.66059 7.52397 7.74459L6.59997 8.66493C7.12223 9.57798 7.87823 10.334 8.79127 10.8562L9.71162 9.93589C9.79927 9.84824 9.92345 9.81172 10.0403 9.83728L11.3807 10.1039C11.5523 10.1368 11.6765 10.2865 11.6765 10.4618ZM6.26397 7.96737L6.86658 7.36476L6.69493 6.51015H5.88049C5.94258 7.0105 6.07406 7.49989 6.26397 7.96737ZM10.9461 10.7613L10.0914 10.5896L9.48884 11.1922C9.95632 11.3822 10.4494 11.51 10.9461 11.5757V10.7613Z" fill="#C80462"/>
</svg>
