<svg width="17" height="18" viewBox="0 0 17 18" fill="none" xmlns="http://www.w3.org/2000/svg">
<circle cx="8.60007" cy="8.66667" r="8.4" fill="#CADDF1"/>
<path d="M12.4756 11.2165L9.15943 7.90032C9.49908 7.04571 9.32377 6.03771 8.63351 5.3438C7.79351 4.5038 6.48603 4.4271 5.55473 5.10641L6.95716 6.5125L6.43856 7.02745L5.03977 5.62867C4.36047 6.55632 4.43716 7.86745 5.27716 8.7038C5.95647 9.3831 6.94621 9.56206 7.79351 9.24432L11.1206 12.5715C11.2631 12.7139 11.4932 12.7139 11.6356 12.5715L12.4756 11.7315C12.6217 11.5927 12.6217 11.3626 12.4756 11.2165ZM11.3799 11.8008L7.92499 8.34589C7.70221 8.51024 7.45386 8.60884 7.19456 8.64537C6.69786 8.71841 6.1756 8.56867 5.79577 8.18884C5.44882 7.84554 5.28812 7.38537 5.31369 6.9325L6.44221 8.06102L7.99073 6.5125L6.86221 5.38397C7.31508 5.35841 7.7716 5.5191 8.11856 5.86241C8.51299 6.25684 8.66273 6.80102 8.57143 7.30867C8.5276 7.56797 8.41803 7.80902 8.25003 8.0245L11.7013 11.4758L11.3799 11.8008Z" fill="#0466C8"/>
</svg>
