<svg width="18" height="18" viewBox="0 0 18 18" fill="none" xmlns="http://www.w3.org/2000/svg">
<circle cx="9.1334" cy="9.20001" r="8.4" fill="#04A5C8" fill-opacity="0.2"/>
<path d="M12.7105 6.00892C12.6059 5.73957 12.313 5.54783 11.9679 5.54783H6.21573C5.8706 5.54783 5.583 5.73957 5.47318 6.00892L4.3855 8.74348V12.3957C4.3855 12.6467 4.62081 12.8522 4.90842 12.8522H5.43135C5.71896 12.8522 5.95427 12.6467 5.95427 12.3957V11.9391H12.2294V12.3957C12.2294 12.6467 12.4647 12.8522 12.7523 12.8522H13.2752C13.5628 12.8522 13.7981 12.6467 13.7981 12.3957V8.74348L12.7105 6.00892ZM6.39876 6.46088H11.7797L12.3444 7.88066H5.834L6.39876 6.46088ZM12.7523 11.0261H5.43135V8.74348H12.7523V11.0261Z" fill="#04A5C8"/>
<path d="M6.73861 10.5696C7.17182 10.5696 7.523 10.263 7.523 9.88479C7.523 9.5066 7.17182 9.20001 6.73861 9.20001C6.30541 9.20001 5.95422 9.5066 5.95422 9.88479C5.95422 10.263 6.30541 10.5696 6.73861 10.5696Z" fill="#04A5C8"/>
<path d="M11.4452 10.5696C11.8784 10.5696 12.2295 10.263 12.2295 9.88479C12.2295 9.5066 11.8784 9.20001 11.4452 9.20001C11.0119 9.20001 10.6608 9.5066 10.6608 9.88479C10.6608 10.263 11.0119 10.5696 11.4452 10.5696Z" fill="#04A5C8"/>
</svg>
